<?xml version="1.0" encoding="UTF-8" standalone="no"?>
<!-- Created with Inkscape (http://www.inkscape.org/) -->

<svg
   xmlns:dc="http://purl.org/dc/elements/1.1/"
   xmlns:cc="http://creativecommons.org/ns#"
   xmlns:rdf="http://www.w3.org/1999/02/22-rdf-syntax-ns#"
   xmlns:svg="http://www.w3.org/2000/svg"
   xmlns="http://www.w3.org/2000/svg"
   xmlns:sodipodi="http://sodipodi.sourceforge.net/DTD/sodipodi-0.dtd"
   xmlns:inkscape="http://www.inkscape.org/namespaces/inkscape"
   version="1.1"
   id="svg2"
   xml:space="preserve"
   width="200.64507"
   height="70.578667"
   viewBox="0 0 200.64506 70.578665"
   sodipodi:docname="Azure Power.svg"
   inkscape:version="0.92.1 r15371"><metadata
     id="metadata8"><rdf:RDF><cc:Work
         rdf:about=""><dc:format>image/svg+xml</dc:format><dc:type
           rdf:resource="http://purl.org/dc/dcmitype/StillImage" /><dc:title></dc:title></cc:Work></rdf:RDF></metadata><defs
     id="defs6"><clipPath
       clipPathUnits="userSpaceOnUse"
       id="clipPath18"><path
         d="M 0,841.89 H 595.276 V 0 H 0 Z"
         id="path16"
         inkscape:connector-curvature="0" /></clipPath></defs><sodipodi:namedview
     pagecolor="#ffffff"
     bordercolor="#666666"
     borderopacity="1"
     objecttolerance="10"
     gridtolerance="10"
     guidetolerance="10"
     inkscape:pageopacity="0"
     inkscape:pageshadow="2"
     inkscape:window-width="1366"
     inkscape:window-height="705"
     id="namedview4"
     showgrid="false"
     fit-margin-top="0"
     fit-margin-left="0"
     fit-margin-right="0"
     fit-margin-bottom="0"
     inkscape:zoom="2.3786081"
     inkscape:cx="81.909018"
     inkscape:cy="-20.62137"
     inkscape:window-x="-8"
     inkscape:window-y="-8"
     inkscape:window-maximized="1"
     inkscape:current-layer="g10" /><g
     id="g10"
     inkscape:groupmode="layer"
     inkscape:label="A9R1f9dbf3_1dkhkjf_ajg"
     transform="matrix(1.3333333,0,0,-1.3333333,-533.97092,1072.9528)"><g
       id="g12"><g
         id="g14"
         clip-path="url(#clipPath18)"><g
           id="g20"
           transform="translate(491.281,761.3062)"><path
             d="m 0,0 v 16.615 h 4.316 c 2.367,0 4.129,-0.489 5.283,-1.469 1.154,-0.978 1.731,-2.478 1.731,-4.497 C 11.33,8.698 10.77,7.18 9.65,6.096 8.53,5.01 6.961,4.468 4.941,4.468 H 4.293 V 0 Z m 18.12,12.352 c 1.679,0 3.113,-0.605 4.3,-1.815 C 23.609,9.327 24.202,7.871 24.202,6.17 24.203,4.462 23.612,3.005 22.433,1.803 21.251,0.601 19.814,0 18.12,0 16.425,0 14.986,0.601 13.802,1.803 12.617,3.005 12.026,4.462 12.026,6.17 c 0,1.709 0.593,3.167 1.781,4.373 1.188,1.205 2.625,1.809 4.313,1.809 m 0,-3.972 c -0.571,0 -1.057,-0.213 -1.46,-0.64 -0.403,-0.425 -0.604,-0.947 -0.604,-1.566 0,-0.612 0.199,-1.127 0.598,-1.546 0.399,-0.418 0.889,-0.627 1.466,-0.627 0.562,0 1.045,0.212 1.448,0.639 0.404,0.426 0.605,0.938 0.605,1.534 0,0.603 -0.202,1.122 -0.605,1.556 -0.403,0.433 -0.886,0.65 -1.448,0.65 M 27.231,0 24.328,11.943 h 4.164 l 1.111,-6.443 1.532,6.443 h 2.587 l 1.51,-6.443 1.135,6.443 h 4.05 L 37.387,0 H 33.7 L 32.19,5.762 30.818,0 Z M 51.364,1.358 C 50.652,0.906 49.9,0.566 49.109,0.339 48.317,0.114 47.487,0 46.615,0 44.79,0 43.312,0.561 42.184,1.681 c -1.128,1.121 -1.692,2.574 -1.692,4.361 0,1.764 0.592,3.252 1.778,4.463 1.184,1.211 2.64,1.817 4.367,1.817 1.271,0 2.385,-0.358 3.339,-1.076 0.954,-0.719 1.648,-1.719 2.079,-3.004 L 45.669,3.725 c 0.204,-0.084 0.415,-0.146 0.635,-0.188 0.219,-0.042 0.466,-0.062 0.738,-0.062 0.643,0 1.306,0.151 1.99,0.453 0.685,0.303 1.36,0.745 2.026,1.328 z m -7.241,4.71 3.639,2.643 C 47.603,8.871 47.42,8.988 47.216,9.06 47.012,9.132 46.773,9.169 46.5,9.169 45.847,9.169 45.277,8.917 44.788,8.414 44.299,7.91 44.053,7.327 44.053,6.663 44.053,6.572 44.06,6.477 44.071,6.377 44.083,6.278 44.1,6.174 44.123,6.068 M 53.128,0 v 11.943 h 3.943 v -1.235 c 0.277,0.439 0.626,0.769 1.046,0.988 0.419,0.22 0.938,0.341 1.552,0.364 L 59.681,7.942 H 59.22 C 58.522,7.942 57.989,7.749 57.622,7.364 57.255,6.978 57.071,6.422 57.071,5.696 V 0 Z m -116.918,0 5.816,16.615 h 4.862 L -47.614,0 h -4.567 l -0.602,1.869 h -5.885 L -59.304,0 Z m 6.327,6.016 h 3.419 l -1.715,5.606 z M -46.541,0 l 3.602,8.118 h -3.415 v 3.999 h 9.294 L -40.635,4.03 h 3.859 L -37.661,0 Z m 21.117,11.943 V 0 h -3.874 v 1.136 c -0.37,-0.437 -0.802,-0.765 -1.292,-0.983 -0.492,-0.219 -1.043,-0.328 -1.655,-0.328 -1.134,0 -1.994,0.342 -2.58,1.027 -0.585,0.684 -0.878,1.688 -0.878,3.012 v 8.079 h 3.942 V 5.609 c 0,-0.672 0.084,-1.143 0.253,-1.411 0.169,-0.268 0.452,-0.402 0.849,-0.402 0.434,0 0.759,0.152 0.973,0.454 0.213,0.302 0.32,0.763 0.32,1.382 v 6.311 z M -24.351,0 v 11.943 h 3.942 v -1.235 c 0.277,0.439 0.625,0.769 1.046,0.988 0.42,0.22 0.937,0.341 1.553,0.364 l 0.011,-4.118 h -0.461 c -0.698,0 -1.23,-0.193 -1.599,-0.578 -0.367,-0.386 -0.55,-0.942 -0.55,-1.668 V 0 Z M -6.056,1.358 C -6.769,0.906 -7.521,0.566 -8.312,0.339 -9.104,0.114 -9.935,0 -10.806,0 c -1.826,0 -3.302,0.561 -4.43,1.681 -1.13,1.121 -1.693,2.574 -1.693,4.361 0,1.764 0.592,3.252 1.778,4.463 1.184,1.211 2.641,1.817 4.368,1.817 1.272,0 2.383,-0.358 3.339,-1.076 0.953,-0.719 1.646,-1.719 2.078,-3.004 l -6.386,-4.517 c 0.204,-0.084 0.416,-0.146 0.636,-0.188 0.219,-0.042 0.465,-0.062 0.738,-0.062 0.642,0 1.306,0.151 1.99,0.453 0.684,0.303 1.36,0.745 2.026,1.328 z m -7.242,4.71 3.64,2.643 c -0.16,0.16 -0.342,0.277 -0.546,0.349 -0.206,0.072 -0.445,0.109 -0.717,0.109 -0.653,0 -1.224,-0.252 -1.713,-0.755 -0.487,-0.504 -0.733,-1.087 -0.733,-1.751 0,-0.091 0.006,-0.186 0.017,-0.286 0.012,-0.099 0.03,-0.203 0.052,-0.309 M 4.293,8.644 h 0.512 c 0.706,0 1.254,0.172 1.646,0.52 0.39,0.346 0.587,0.828 0.587,1.446 0,0.655 -0.195,1.158 -0.581,1.508 -0.387,0.351 -0.946,0.526 -1.675,0.526 H 4.293 Z"
             style="fill:#0071b9;fill-opacity:1;fill-rule:evenodd;stroke:none"
             id="path22"
             inkscape:connector-curvature="0" /></g><g
           id="g24"
           transform="translate(446.5822,782.8936)"><path
             d="M 0,0 6.071,6.071 6.83,5.312 0.759,-0.759 Z m -7.836,4.204 1.036,-0.278 2.222,8.293 -1.036,0.278 z m -8.889,-0.278 1.037,0.278 -2.222,8.293 -1.037,-0.278 z m -7.558,-4.685 0.758,0.759 -6.071,6.071 -0.758,-0.759 z m -4.204,-7.836 0.278,1.036 -8.293,2.223 -0.278,-1.037 z m 0.278,-8.889 -0.278,1.037 -8.293,-2.222 0.278,-1.037 z m 4.684,-7.558 -6.071,-6.071 -0.758,0.759 6.07,6.071 z m 19.883,27.66 0.93,-0.537 8.585,14.871 -0.929,0.536 z m -8.657,19.203 h 1.073 V 4.65 h -1.073 z m -8.514,-19.74 0.93,0.537 -8.586,14.87 -0.929,-0.536 z m -6.088,-6.481 0.536,0.929 -14.87,8.586 -0.537,-0.93 z m -2.032,-8.658 h -17.171 v 1.073 h 17.171 z m 2.568,-8.514 -0.536,0.93 -14.871,-8.586 0.537,-0.929 z m 3.979,19.675 c 5.867,5.867 15.38,5.867 21.248,0 0.255,-0.255 0.498,-0.518 0.731,-0.786 -5.902,5.124 -14.849,4.88 -20.462,-0.732 -5.612,-5.612 -5.855,-14.56 -0.731,-20.462 -0.269,0.233 -0.531,0.476 -0.786,0.732 -5.868,5.867 -5.868,15.38 0,21.248"
             style="fill:#f99d1e;fill-opacity:1;fill-rule:evenodd;stroke:none"
             id="path26"
             inkscape:connector-curvature="0" /></g></g></g></g></svg>